<?xml version="1.0" encoding="utf-8"?>
<!-- Svg Vector Icons : http://www.onlinewebfonts.com/icon -->
<!DOCTYPE svg PUBLIC "-//W3C//DTD SVG 1.1//EN" "http://www.w3.org/Graphics/SVG/1.1/DTD/svg11.dtd">
<svg version="1.1" xmlns="http://www.w3.org/2000/svg" x="0px" y="0px" viewBox="0 0 256 256"
     enable-background="new 0 0 256 256" fill="#0C96D1" width="90px" height="130px" xml:space="preserve">
<g><g><g><path fill="#0C96D1" d="M49.4,18.3c-2.6,1.3-4.9,3.9-5.7,6.8c-0.8,3.1-0.9,162.4,0,164.7c0.3,0.9,0.8,1.6,1,1.6c0.3,0,2.1-3.2,4.1-7.1l3.5-7.1v-74.9c0-57.5,0.2-75.1,0.7-75.7c1-1,81.2-1,83-0.1c1.1,0.6,1.2,1.4,1.2,14.2v13.5l1.5,1.5c1.5,1.5,1.6,1.5,13.4,1.5c6.5,0,12.3,0.3,12.8,0.6c0.8,0.5,0.9,5.5,1.1,37.5l0.1,36.9h4.3h4.3V91.8V51.3l-2-2.5c-4.8-5.7-28.2-30.8-29.1-31.1c-0.6-0.2-21.5-0.4-46.6-0.4C56.3,17.3,51.2,17.4,49.4,18.3z"/><path
        fill="#0C96D1"
        d="M18.8,83.2c-3,1-5.7,3.4-7.3,6.2L10.2,92L10,159.4c-0.1,51.8,0,68,0.6,70.1c0.9,3.4,5,7.6,8.3,8.6c1.7,0.5,26.6,0.6,88.8,0.5l86.5-0.2l3.1-2.1c1.7-1.2,3.9-3.4,4.9-4.9c3.5-5.3,43.2-81.2,43.6-83.3c0.6-2.8-1-6.3-3.3-7.4c-1.6-0.9-5.2-1-24.9-1h-23l-0.2-11.9c-0.2-10.5-0.3-12.1-1.4-13.9c-1.6-2.8-5-5.5-7.5-6l-2-0.4l-0.1,15.9l-0.2,15.9l-50.1,0.3c-36.6,0.2-50.5,0.5-51.4,1c-3.6,2.1-5.8,6.2-25.5,45.9l-20.4,41h-5.2c-4.9,0-5.4-0.1-7.2-1.8l-2-1.8v-63.5V97.2l2-1.8c1.8-1.7,2.3-1.8,6.9-1.8h4.9V88v-5.5L28,82.6C23.9,82.6,19.9,82.9,18.8,83.2z"/></g></g></g>
</svg>