<?xml version="1.0" encoding="utf-8"?>
<!-- Svg Vector Icons : http://www.onlinewebfonts.com/icon -->
<!DOCTYPE svg PUBLIC "-//W3C//DTD SVG 1.1//EN" "http://www.w3.org/Graphics/SVG/1.1/DTD/svg11.dtd">
<svg fill="#707980" width="24px" height="24px" version="1.1" xmlns="http://www.w3.org/2000/svg" xmlns:xlink="http://www.w3.org/1999/xlink" x="0px" y="0px" viewBox="0 0 256 256" enable-background="new 0 0 256 256" xml:space="preserve">
<g><g><g id="XMLID_144_"><path fill="#707980" id="XMLID_151_" d="M173.2,231.4H25.7V24.5h147.4v51.3l15.7-15.7V16.7c0-4.3-3.5-7.8-7.8-7.8H17.8c-4.3,0-7.8,3.5-7.8,7.8v222.6c0,4.3,3.5,7.8,7.8,7.8H181c4.3,0,7.8-3.5,7.8-7.8v-86.5l-15.7,15.7L173.2,231.4L173.2,231.4z"/><path fill="#707980" id="XMLID_150_" d="M150,43.4H48.9c-3.3,0-6,2.7-6,6c0,3.3,2.7,6,6,6H150c3.3,0,6-2.7,6-6C156,46.1,153.3,43.4,150,43.4z"/><path fill="#707980" id="XMLID_149_" d="M156,81.4c0-3.3-2.7-6-6-6H48.9c-3.3,0-6,2.7-6,6c0,3.3,2.7,6,6,6H150C153.3,87.4,156,84.7,156,81.4z"/><path fill="#707980" id="XMLID_148_" d="M141.5,107.5H48.9c-3.3,0-6,2.7-6,6c0,3.3,2.7,6,6,6h80.6L141.5,107.5z"/><path fill="#707980" id="XMLID_147_" d="M107.9,147.3c0.8-2.7,2-5.3,3.4-7.8H48.9c-3.3,0-6,2.7-6,6c0,3.3,2.7,6,6,6h57.8L107.9,147.3z"/><path fill="#707980" id="XMLID_146_" d="M48.9,171.5c-3.3,0-6,2.7-6,6c0,3.3,2.7,6,6,6h52.8c-1.6-3.8-2-7.9-0.9-12L48.9,171.5L48.9,171.5z"/><path fill="#707980" id="XMLID_145_" d="M241,54.3c-3.2-3.2-7.4-4.9-11.9-4.9c-4.5,0-8.7,1.8-11.8,4.9l-88.8,88.8c-2.4,2.4-4.2,5.4-5.2,8.7l-7.1,23.7c-0.3,1,0,2.1,0.7,2.8c0.6,0.6,1.3,0.8,2,0.8c0.3,0,0.6,0,0.8-0.1l23.7-7.1c3.3-1,6.3-2.8,8.7-5.2l88.9-88.8c3.2-3.2,4.9-7.4,4.9-11.8C246,61.7,244.2,57.4,241,54.3z"/></g><g></g><g></g><g></g><g></g><g></g><g></g><g></g><g></g><g></g><g></g><g></g><g></g><g></g><g></g><g></g></g></g>
</svg>